# xmcd
#
# Track frame offsets:
#	150
#	17342
#	34868
#	53323
#	70052
#	91299
#	109061
#	123467
#	140473
#	159732
#	176042
#	192127
#	210934
#
# Disc length: 2939 seconds
#
# Revision: 2
# Processed by: cddbd v1.5.2PL0 Copyright (c) Steve Scherf et al.
# Submitted via: audiograbber 1.83.01
#
DISCID=a30b790d
DTITLE=NEK - NEK
DYEAR=1992
DGENRE=Pop
TTITLE0=Laura non c'e
TTITLE1=Vivere senza te
TTITLE2=Sei
TTITLE3=Dimmi cos'e
TTITLE4=Solo
TTITLE5=Nati per vivere
TTITLE6=Fianco a fianco
TTITLE7=Se io non avessi te
TTITLE8=Sto con te
TTITLE9=Se una regola c'e
TTITLE10=Con un ma e con un se
TTITLE11=Basta uno seguardo
TTITLE12=Non sei mai lontano
EXTD=
EXTT0=
EXTT1=
EXTT2=
EXTT3=
EXTT4=
EXTT5=
EXTT6=
EXTT7=
EXTT8=
EXTT9=
EXTT10=
EXTT11=
EXTT12=
PLAYORDER=
